:SAMPLES-PER-SECOND 30
:FULLY-SPECIFIED
:DEGREES
987
root  -40.7527 39.3276 31.6482 176.079 30.8756 177.373
RightUpLeg  14.9185 -6.86836 2.33857
RightLeg  9.73965 16.4277 1.81463
RightFoot  -15.3985 -0.420257 -8.90697
RightToes  3.49245e-010 0 -3.6325e-017
Spine  7.96414 0.906047 8.42189
Spine1  5.95409 2.93008 -6.35589
HEad  -25.6374 56.8209 7.13698
LeftShoulder1  0.181777 2.99073 -29.2655
LeftArm  -11.2068 16.9625 -37.4727
LeftForeArm  17.8035 -6.70201 -4.49962
LeftHand  0.0190883 6.7072 4.49705
RightShoulder  -0.647717 -5.36774 28.0343
RightArm  8.19031 0.836307 42.2549
RightForeArm  -1.3958 7.0193 5.56847
RightHand  -0.598293 2.60419 -8.89489
LeftUpLeg  -12.3087 -3.85885 -11.4231
LeftLeg  0.182991 8.3248 -2.60167
LeftFoot  -1.53084 0.971867 -11.1731
LeftToes  -2.21735e-009 9.83027e-011 -4.04511e-011
988
root  -39.769 39.1279 31.2808 176.398 33.3143 177.669
RightUpLeg  15.8492 -6.68572 3.00766
RightLeg  10.34 18.0142 2.42586
RightFoot  -15.6583 -0.457923 -9.32451
RightToes  3.49245e-010 0 -3.6325e-017
Spine  7.45694 1.13269 8.00682
Spine1  6.23326 3.24937 -6.83179
HEad  -24.4295 56.5654 8.93304
LeftShoulder1  0.119833 3.16381 -29.1445
LeftArm  -10.7317 15.306 -35.6808
LeftForeArm  15.8624 -7.11879 -4.72261
LeftHand  0.00218772 6.01907 5.214
RightShoulder  -0.695259 -5.48234 28.4617
RightArm  8.74963 0.342854 44.8802
RightForeArm  -0.850484 8.92192 5.78519
RightHand  -0.655604 3.73038 -8.58399
LeftUpLeg  -12.0076 -3.78574 -11.6561
LeftLeg  -0.350575 7.05467 -2.64441
LeftFoot  -0.439946 0.928981 -9.6479
LeftToes  -2.21735e-009 9.83027e-011 -4.04511e-011
989
root  -38.7185 38.9772 30.8599 176.292 35.5826 177.517
RightUpLeg  17.3153 -6.40198 3.1957
RightLeg  10.5813 19.6303 2.90233
RightFoot  -15.5602 -0.45407 -9.47008
RightToes  3.49245e-010 0 -3.6325e-017
Spine  6.82703 1.46347 6.55447
Spine1  6.72872 3.52897 -6.72096
HEad  -22.6544 56.0756 11.1632
LeftShoulder1  0.150721 3.0736 -28.9151
LeftArm  -10.4018 13.7303 -34.3213
LeftForeArm  13.145 -7.37431 -4.89874
LeftHand  -0.0117986 5.66817 5.54626
RightShoulder  -0.647348 -5.35181 28.3246
RightArm  10.5184 -0.946449 47.6253
RightForeArm  -0.245068 11.185 6.05176
RightHand  -0.7361 4.74687 -8.69728
LeftUpLeg  -11.9906 -3.54411 -12.0221
LeftLeg  1.38651 6.41454 -2.27625
LeftFoot  1.67009 0.293149 -2.98046
LeftToes  -2.21735e-009 9.83027e-011 -4.04511e-011
990
root  -37.653 38.9692 30.4208 175.206 37.7207 176.15
RightUpLeg  19.1211 -6.47848 1.88183
RightLeg  10.7811 21.9923 3.63073
RightFoot  -14.5799 -0.365267 -9.44905
RightToes  3.49245e-010 0 -3.6325e-017
Spine  6.39856 1.7066 3.72295
Spine1  7.44697 3.69848 -6.57283
HEad  -21.7016 56.2316 12.47
LeftShoulder1  0.0343971 3.4067 -29.3328
LeftArm  -10.5128 11.2824 -32.7934
LeftForeArm  11.9248 -7.26086 -4.87857
LeftHand  -0.0105887 5.612 6.45333
RightShoulder  -0.614631 -5.22746 28.9136
RightArm  13.8298 -1.62346 49.5476
RightForeArm  2.31884 13.3971 6.21186
RightHand  -0.616486 3.79548 -8.04681
LeftUpLeg  -11.8626 -3.19787 -12.8254
LeftLeg  3.13705 8.88157 -1.80234
LeftFoot  5.20189 -1.19516 8.04452
LeftToes  -2.21735e-009 9.83027e-011 -4.04511e-011
991
root  -36.5677 39.0185 29.9645 173.444 39.445 174.136
RightUpLeg  20.1694 -6.71915 -0.42989
RightLeg  13.1874 25.1616 5.66504
RightFoot  -13.1257 -0.212304 -7.83784
RightToes  3.49245e-010 0 -3.6325e-017
Spine  6.57211 1.77278 0.85933
Spine1  7.30412 3.73854 -6.98695
HEad  -20.4339 55.0559 14.79
LeftShoulder1  -0.0452058 3.62968 -29.899
LeftArm  -10.9341 8.04456 -31.5993
LeftForeArm  11.2677 -6.33052 -4.66275
LeftHand  -0.0111364 5.5954 5.42206
RightShoulder  -0.602348 -5.17234 29.3376
RightArm  17.9519 -2.2309 51.4965
RightForeArm  5.05022 14.9583 6.33243
RightHand  -0.53311 3.0412 -7.57363
LeftUpLeg  -11.3452 -2.86751 -13.5807
LeftLeg  5.5011 9.98622 -1.31602
LeftFoot  6.45158 -2.11233 13.2274
LeftToes  -2.21735e-009 9.83027e-011 -4.04511e-011
992
root  -35.6013 39.1029 29.5403 172.301 40.7141 172.375
RightUpLeg  18.7507 -6.76752 -2.90883
RightLeg  19.1719 28.2035 10.1117
RightFoot  -11.2972 -0.0701303 -1.72751
RightToes  3.49245e-010 0 -3.6325e-017
Spine  6.8185 1.86459 -1.16864
Spine1  6.47436 3.73409 -7.80092
HEad  -19.0285 54.0833 15.3911
LeftShoulder1  -0.00477322 3.51544 -30.3589
LeftArm  -11.0779 4.26469 -31.6093
LeftForeArm  10.2907 -4.42057 -4.65794
LeftHand  0.0581726 6.82027 7.2513
RightShoulder  -0.579499 -5.12347 29.0061
RightArm  23.0903 -2.57601 53.215
RightForeArm  7.87493 15.4841 6.78633
RightHand  -0.471013 3.36035 -6.49106
LeftUpLeg  -10.8161 -1.50001 -13.5233
LeftLeg  7.32258 9.97859 -1.76203
LeftFoot  4.19902 -1.60868 11.5509
LeftToes  -2.21735e-009 9.83027e-011 -4.04511e-011
